<?xml version="1.0" standalone="no"?>
<!DOCTYPE svg PUBLIC "-//W3C//DTD SVG 20010904//EN"
 "http://www.w3.org/TR/2001/REC-SVG-20010904/DTD/svg10.dtd">
<svg version="1.0" xmlns="http://www.w3.org/2000/svg"
 width="500.000000pt" height="500.000000pt" viewBox="0 0 500.000000 500.000000"
 preserveAspectRatio="xMidYMid meet">
<metadata>
Created by potrace 1.14, written by Peter Selinger 2001-2017
</metadata>
<g transform="translate(0.000000,500.000000) scale(0.100000,-0.100000)"
fill="#000000" stroke="none">
<path d="M2266 3128 c-126 -143 -229 -266 -230 -273 -1 -12 453 -535 464 -535
6 0 464 518 468 529 3 8 -454 534 -467 538 -3 1 -109 -115 -235 -259z m310
-30 c4 -6 0 -16 -9 -23 -23 -16 -21 -22 8 -29 13 -3 41 -20 60 -38 106 -92 99
-253 -13 -332 -74 -52 -194 -47 -263 11 -51 43 -72 96 -67 173 5 94 30 129
138 191 13 7 12 10 -4 22 -33 24 -9 37 69 37 45 0 77 -5 81 -12z"/>
<path d="M2435 3090 c-4 -6 18 -10 59 -10 37 0 66 4 66 10 0 6 -26 10 -59 10
-33 0 -63 -4 -66 -10z"/>
<path d="M2478 3063 c12 -2 30 -2 40 0 9 3 -1 5 -23 4 -22 0 -30 -2 -17 -4z"/>
<path d="M2414 3021 c-81 -37 -127 -136 -104 -222 16 -58 81 -123 138 -138 91
-25 187 20 232 109 20 38 16 119 -9 168 -45 88 -165 127 -257 83z m131 -2 c84
-21 144 -114 130 -200 -29 -169 -257 -203 -335 -49 -49 96 5 219 108 250 38
12 47 11 97 -1z"/>
<path d="M2452 2999 c-18 -7 -22 -14 -17 -29 8 -24 -3 -26 -19 -4 -10 13 -14
12 -35 -10 l-23 -24 21 -7 c12 -3 19 -11 16 -16 -4 -5 -13 -5 -25 1 -13 7 -19
6 -24 -6 -11 -28 -6 -42 17 -49 l22 -8 -22 -4 c-23 -4 -28 -18 -17 -47 4 -11
13 -14 30 -10 27 7 33 -10 7 -20 -15 -6 -14 -9 6 -29 21 -21 23 -21 32 -4 14
24 32 12 19 -13 -7 -13 -6 -19 6 -24 29 -11 44 -6 44 14 0 11 5 20 10 20 6 0
10 -9 10 -20 0 -20 15 -25 44 -14 11 4 14 14 10 33 -5 25 -5 25 10 6 16 -19
17 -19 38 3 22 21 22 22 3 38 -19 15 -19 15 6 10 22 -5 28 -2 33 17 9 34 8 37
-14 37 -11 0 -20 5 -20 10 0 6 9 10 20 10 22 0 25 12 9 41 -8 16 -13 18 -25 8
-8 -6 -18 -9 -22 -5 -4 4 2 14 13 22 19 14 19 15 -3 36 -21 22 -22 22 -36 3
-8 -11 -18 -17 -22 -13 -4 4 -1 14 6 23 13 15 14 14 -35 30 -10 3 -15 -2 -15
-15 0 -11 -4 -20 -10 -20 -5 0 -10 9 -10 20 0 22 -4 23 -38 9z m18 -69 c0 -5
6 -10 14 -10 16 0 26 -21 26 -56 0 -35 -12 -29 -38 19 -25 47 -27 57 -12 57 6
0 10 -4 10 -10z"/>
<path d="M1140 2054 c0 -3 12 -21 27 -41 16 -21 30 -55 34 -82 l6 -46 2 39 c1
27 12 53 36 87 25 35 31 49 20 49 -8 0 -15 -3 -15 -7 0 -5 -11 -21 -23 -37
l-24 -29 -22 36 c-20 32 -41 48 -41 31z"/>
<path d="M1365 2035 c-34 -33 -34 -84 1 -119 57 -56 144 -18 144 63 0 31 -6
44 -26 60 -37 29 -89 27 -119 -4z m89 4 c13 -7 30 -25 37 -41 10 -25 9 -33 -8
-56 -25 -33 -76 -41 -104 -16 -29 26 -25 78 7 103 31 24 35 25 68 10z"/>
<path d="M1592 1988 c-2 -84 7 -98 62 -98 44 0 56 24 55 103 l-2 72 -7 -65
c-8 -80 -13 -90 -49 -90 -40 0 -49 16 -54 90 l-3 65 -2 -77z"/>
<path d="M1927 1993 c-40 -103 -40 -103 -29 -103 5 0 13 11 16 25 5 21 12 25
46 25 34 0 41 -4 46 -25 3 -14 11 -25 16 -25 6 0 7 8 4 18 -33 90 -60 152 -66
152 -4 0 -19 -30 -33 -67z m46 10 c2 -10 8 -26 12 -35 6 -15 2 -18 -25 -18
-27 0 -31 3 -25 18 4 9 10 25 12 35 3 9 9 17 13 17 4 0 10 -8 13 -17z"/>
<path d="M2106 2038 c-21 -29 -7 -50 46 -68 51 -18 61 -44 24 -61 -21 -10 -30
-9 -51 5 -31 21 -43 16 -20 -8 33 -32 115 -12 115 29 0 20 -26 43 -59 50 -41
9 -58 30 -40 51 13 15 34 15 74 -2 18 -7 18 -6 6 9 -20 25 -76 22 -95 -5z"/>
<path d="M2290 1975 c0 -50 4 -85 10 -85 6 0 10 17 10 37 l0 38 27 -38 c14
-20 30 -37 35 -37 13 0 10 9 -19 47 -29 37 -29 33 15 101 24 38 -3 24 -31 -15
l-27 -38 0 38 c0 20 -4 37 -10 37 -6 0 -10 -35 -10 -85z"/>
<path d="M2553 2038 c3 -13 11 -51 18 -85 6 -35 15 -61 19 -58 4 2 17 32 30
67 l23 62 27 -69 c30 -74 31 -74 50 15 7 30 14 63 17 73 2 9 0 17 -6 17 -5 0
-15 -25 -21 -56 -13 -62 -19 -61 -44 9 -20 54 -26 53 -51 -16 -20 -53 -28 -49
-40 21 -4 23 -11 42 -17 42 -6 0 -8 -10 -5 -22z"/>
<path d="M2800 1975 l0 -85 56 0 c34 0 53 4 49 10 -3 6 -24 10 -46 10 -37 0
-39 2 -39 29 0 28 3 30 43 34 l42 4 -42 1 c-41 2 -43 4 -43 32 0 28 2 30 39
30 22 0 43 5 46 10 4 6 -15 10 -49 10 l-56 0 0 -85z"/>
<path d="M3100 1975 l0 -85 39 0 c60 0 94 48 56 80 -12 10 -13 16 -4 27 9 10
9 20 1 38 -10 21 -19 25 -52 25 l-40 0 0 -85z m75 40 c0 -14 -8 -21 -27 -23
-24 -3 -28 0 -28 23 0 23 4 26 28 23 19 -2 27 -9 27 -23z m10 -75 c0 -21 -5
-26 -32 -28 -31 -3 -33 -1 -33 28 0 29 2 31 33 28 27 -2 32 -7 32 -28z"/>
<path d="M3282 1988 c-2 -84 7 -98 62 -98 44 0 56 24 55 103 l-2 72 -7 -65
c-8 -80 -13 -90 -49 -90 -40 0 -49 16 -54 90 l-3 65 -2 -77z"/>
<path d="M3480 1975 c0 -50 4 -85 10 -85 6 0 10 35 10 85 0 50 -4 85 -10 85
-6 0 -10 -35 -10 -85z"/>
<path d="M3580 1975 l0 -85 40 0 c22 0 40 5 40 10 0 6 -13 10 -30 10 l-30 0 0
75 c0 43 -4 75 -10 75 -6 0 -10 -35 -10 -85z"/>
<path d="M3730 1975 l0 -85 36 0 c44 0 94 45 94 85 0 40 -50 85 -94 85 l-36 0
0 -85z m88 49 c48 -33 14 -114 -48 -114 l-30 0 0 65 c0 64 0 65 28 65 15 0 38
-7 50 -16z"/>
<path d="M1768 1673 c5 -59 10 -63 11 -10 1 26 -3 47 -7 47 -4 0 -6 -17 -4
-37z"/>
<path d="M1840 1706 c0 -2 7 -7 16 -10 8 -3 12 -2 9 4 -6 10 -25 14 -25 6z"/>
<path d="M1940 1706 c0 -2 7 -7 16 -10 8 -3 12 -2 9 4 -6 10 -25 14 -25 6z"/>
<path d="M1871 1664 c0 -11 3 -14 6 -6 3 7 2 16 -1 19 -3 4 -6 -2 -5 -13z"/>
<path d="M1971 1664 c0 -11 3 -14 6 -6 3 7 2 16 -1 19 -3 4 -6 -2 -5 -13z"/>
</g>
</svg>
